# File created by Blade
# Date/Time:  Wed Sep 24 19:10:19 2014
# Frame Rate: 120.000 fps
#------------------------------------------------------
:FULLY-SPECIFIED
:DEGREES
2662
root -9.688592 32.898941 -3.933395 28.821126 39.586661 22.179953
Spine -2.979440 -3.102814 1.154435
Head -10.874260 13.539029 -4.071880
LeftShoulder -0.029058 4.853586 13.435871
LeftArm 40.222209 -9.291053 -83.232522
LeftForeArm 2.656038 0.000000 76.665776
LeftHand -24.321032 -0.000000 23.713139
LeftHandThumb1 -26.253704 0.000000 33.147579
RightShoulder -14.655091 13.789157 -22.999153
RightArm -8.200779 -21.137699 66.734880
RightForeArm -24.305465 0.000000 36.413255
RightHand -4.518793 0.000000 10.520825
RightHandThumb1 -24.326973 -0.000000 -32.862282
LeftUpLeg -61.292683 42.641851 5.225058
LeftLeg 111.383845 -0.000000 -0.000000
LeftFoot 35.308686 15.776450 -22.894908
LeftToeBase 7.788166 -0.000000 -0.000000
RightUpLeg -28.276189 -19.553597 -1.597419
RightLeg 26.081638 -0.000000 -0.000000
RightFoot -17.512361 -36.081518 -0.307037
RightToeBase -0.363689 -0.000000 0.000000
2663
root -9.681195 32.908035 -3.924350 28.954074 39.509945 22.317794
Spine -3.104785 -3.139958 0.990624
Head -10.807621 13.638788 -4.067873
LeftShoulder -0.036929 4.857579 13.374451
LeftArm 40.153433 -9.209642 -83.175220
LeftForeArm 2.728574 -0.000000 76.794179
LeftHand -24.365112 -0.000000 23.658120
LeftHandThumb1 -26.253704 0.000000 33.147579
RightShoulder -14.669794 13.751165 -23.008932
RightArm -8.335456 -21.062156 66.872495
RightForeArm -24.313247 0.000000 36.350196
RightHand -4.553814 -0.000000 10.475613
RightHandThumb1 -24.326973 -0.000000 -32.862282
LeftUpLeg -61.013823 42.620613 5.604321
LeftLeg 111.267295 -0.000000 -0.000000
LeftFoot 35.186872 15.751922 -23.080195
LeftToeBase 8.089538 -0.000000 -0.000000
RightUpLeg -28.309847 -19.623771 -1.691430
RightLeg 26.062609 -0.000000 -0.000000
RightFoot -17.490853 -36.025185 -0.340454
RightToeBase -0.322434 -0.000000 0.000000
2664
root -9.672611 32.917458 -3.912875 29.075959 39.430228 22.455436
Spine -3.235192 -3.200687 0.824047
Head -10.698602 13.770429 -4.069644
LeftShoulder -0.063108 4.901855 13.293170
LeftArm 40.159076 -9.164180 -83.142913
LeftForeArm 2.784668 0.000000 76.864900
LeftHand -24.844205 -0.000000 24.166704
LeftHandThumb1 -26.253704 0.000000 33.147579
RightShoulder -14.671806 13.691976 -23.006268
RightArm -8.417033 -21.021690 66.994336
RightForeArm -24.305113 -0.000000 36.263796
RightHand -4.551193 -0.000000 10.483266
RightHandThumb1 -24.326973 -0.000000 -32.862282
LeftUpLeg -60.706331 42.604859 6.006931
LeftLeg 111.121115 -0.000000 -0.000000
LeftFoot 35.366446 15.636754 -22.761240
LeftToeBase 7.500023 -0.000000 -0.000000
RightUpLeg -28.325004 -19.674073 -1.796622
RightLeg 26.040866 -0.000000 -0.000000
RightFoot -17.487312 -35.977923 -0.330501
RightToeBase -0.368035 -0.000000 0.000000
2665
root -9.662267 32.927445 -3.898014 29.178928 39.321512 22.586060
Spine -3.373855 -3.218255 0.635382
Head -10.548854 13.884522 -4.055543
LeftShoulder -0.070700 4.902012 13.242301
LeftArm 40.022929 -9.057449 -83.073446
LeftForeArm 3.002667 -0.000000 76.972542
LeftHand -24.503008 -0.000000 23.685716
LeftHandThumb1 -26.253704 0.000000 33.147579
RightShoulder -14.684183 13.599535 -22.989502
RightArm -8.495845 -20.969833 67.111688
RightForeArm -24.265539 0.000000 36.211825
RightHand -4.562838 -0.000000 10.578485
RightHandThumb1 -24.326973 -0.000000 -32.862282
LeftUpLeg -60.311846 42.613577 6.491372
LeftLeg 110.992337 -0.000000 -0.000000
LeftFoot 35.160770 15.722896 -22.978945
LeftToeBase 7.932909 -0.000000 -0.000000
RightUpLeg -28.322316 -19.714492 -1.908898
RightLeg 26.012600 -0.000000 -0.000000
RightFoot -17.477641 -35.921785 -0.355277
RightToeBase -0.364502 -0.000000 0.000000
2666
root -9.650840 32.938866 -3.882653 29.290870 39.199601 22.735883
Spine -3.518012 -3.239643 0.415347
Head -10.385111 13.999924 -4.029245
LeftShoulder -0.056848 4.819753 13.179294
LeftArm 39.827644 -9.003725 -82.944566
LeftForeArm 2.981323 -0.000000 77.056469
LeftHand -24.785295 -0.000000 24.095742
LeftHandThumb1 -26.253704 0.000000 33.147579
RightShoulder -14.703954 13.547596 -22.977320
RightArm -8.611984 -20.909308 67.250836
RightForeArm -24.293262 -0.000000 36.138955
RightHand -4.485371 0.000000 10.601918
RightHandThumb1 -24.326973 -0.000000 -32.862282
LeftUpLeg -59.896770 42.599171 6.976306
LeftLeg 110.842483 -0.000000 -0.000000
LeftFoot 35.092074 15.865716 -22.990692
LeftToeBase 8.023075 -0.000000 -0.000000
RightUpLeg -28.313891 -19.743245 -2.047932
RightLeg 25.985329 -0.000000 -0.000000
RightFoot -17.452266 -35.867516 -0.381137
RightToeBase -0.401765 -0.000000 0.000000
